<?xml version="1.0" standalone="no"?>
<!DOCTYPE svg PUBLIC "-//W3C//DTD SVG 20010904//EN"
 "http://www.w3.org/TR/2001/REC-SVG-20010904/DTD/svg10.dtd">
<svg version="1.0" xmlns="http://www.w3.org/2000/svg"
 width="1600.000000pt" height="1600.000000pt" viewBox="0 0 1600.000000 1600.000000"
 preserveAspectRatio="xMidYMid meet">
<metadata>
Created by potrace 1.14, written by Peter Selinger 2001-2017
</metadata>
<g transform="translate(0.000000,1600.000000) scale(0.100000,-0.100000)"
fill="#000000" stroke="none">
<path d="M7887 15373 c-1 -1 -88 -4 -192 -8 -192 -6 -269 -10 -360 -19 -27 -3
-81 -8 -120 -11 -38 -3 -81 -8 -93 -11 -26 -5 -67 -11 -147 -18 -27 -3 -61 -8
-75 -11 -30 -6 -71 -13 -124 -20 -21 -3 -42 -8 -46 -10 -5 -3 -30 -8 -57 -11
-26 -3 -56 -7 -65 -10 -23 -7 -45 -11 -103 -18 -27 -4 -54 -11 -60 -15 -5 -5
-28 -11 -50 -14 -38 -5 -80 -14 -80 -17 0 -1 -13 -4 -30 -6 -16 -2 -46 -8 -65
-13 -19 -5 -64 -17 -100 -26 -36 -9 -83 -23 -105 -29 -89 -28 -112 -35 -145
-42 -42 -10 -41 -9 -60 -17 -8 -3 -42 -15 -75 -26 -63 -21 -190 -67 -215 -78
-8 -3 -21 -7 -29 -9 -17 -3 -110 -40 -176 -69 -27 -12 -61 -25 -75 -29 -14 -4
-38 -13 -55 -21 -16 -7 -46 -20 -66 -29 -19 -8 -65 -29 -102 -45 -37 -17 -67
-27 -67 -23 0 4 -4 3 -8 -3 -4 -5 -23 -17 -42 -26 -205 -96 -527 -262 -540
-278 -3 -3 -23 -15 -45 -26 -22 -11 -42 -23 -45 -26 -3 -3 -25 -17 -50 -31
-38 -21 -139 -85 -307 -192 -21 -14 -45 -31 -54 -39 -10 -8 -38 -27 -63 -42
-25 -15 -46 -30 -46 -34 0 -3 -16 -15 -35 -25 -19 -11 -35 -23 -35 -28 0 -5
-5 -6 -10 -3 -5 3 -10 2 -10 -2 0 -5 -13 -17 -30 -26 -16 -10 -35 -23 -42 -30
-7 -7 -42 -35 -78 -62 -36 -28 -72 -57 -81 -65 -9 -8 -31 -26 -49 -40 -18 -14
-40 -32 -49 -40 -9 -8 -37 -31 -61 -50 -25 -19 -50 -39 -56 -45 -6 -5 -26 -21
-43 -35 -78 -62 -161 -141 -381 -360 -240 -240 -310 -315 -310 -330 0 -5 -4
-10 -8 -12 -10 -3 -161 -181 -207 -243 -16 -22 -39 -50 -50 -62 -24 -26 -32
-36 -70 -88 -17 -22 -35 -46 -42 -53 -6 -7 -38 -49 -70 -95 -31 -45 -61 -83
-65 -85 -4 -2 -8 -10 -8 -17 0 -7 -4 -15 -8 -17 -5 -1 -26 -30 -47 -63 -22
-33 -42 -62 -46 -65 -4 -3 -15 -21 -25 -40 -11 -19 -32 -53 -47 -75 -50 -72
-107 -165 -107 -175 0 -6 -5 -10 -11 -10 -5 0 -7 -4 -4 -10 3 -5 1 -10 -4 -10
-6 0 -11 -4 -11 -8 0 -5 -26 -51 -57 -103 -46 -76 -275 -521 -278 -539 -1 -3
-14 -32 -29 -65 -16 -33 -29 -64 -30 -70 -1 -5 -12 -31 -24 -57 -33 -71 -56
-125 -87 -203 -41 -104 -55 -138 -65 -157 -5 -9 -12 -31 -15 -48 -3 -17 -10
-39 -15 -48 -10 -18 -75 -202 -92 -262 -6 -19 -14 -40 -19 -46 -5 -6 -6 -13
-4 -16 3 -3 1 -16 -4 -29 -5 -13 -10 -28 -11 -34 -2 -5 -13 -47 -26 -92 -12
-46 -25 -86 -28 -91 -3 -5 -7 -22 -10 -38 -3 -16 -11 -51 -17 -79 -6 -27 -18
-79 -26 -115 -8 -36 -19 -83 -25 -105 -6 -22 -12 -53 -14 -70 -4 -28 -8 -50
-34 -185 -6 -30 -13 -68 -16 -85 -2 -16 -9 -52 -14 -80 -6 -27 -12 -70 -15
-95 -14 -134 -17 -155 -20 -160 -2 -3 -6 -46 -9 -96 -4 -49 -9 -101 -11 -115
-19 -92 -31 -706 -21 -1004 5 -117 15 -293 22 -350 2 -22 6 -67 9 -100 3 -33
7 -73 10 -90 9 -59 15 -101 19 -150 3 -27 15 -99 26 -160 11 -60 25 -135 30
-165 4 -30 11 -62 13 -70 3 -8 8 -39 12 -69 3 -29 8 -58 11 -63 8 -13 33 -123
49 -213 2 -11 8 -33 14 -48 6 -15 10 -31 9 -35 -2 -7 18 -79 30 -112 12 -32
23 -72 26 -93 1 -9 5 -20 9 -23 4 -4 7 -17 7 -28 0 -12 16 -66 35 -121 20 -55
47 -134 61 -175 14 -41 29 -83 34 -92 6 -10 10 -24 10 -31 0 -7 11 -37 25 -65
14 -29 25 -56 25 -61 0 -5 14 -40 31 -78 17 -37 31 -70 31 -73 1 -9 15 -44 43
-105 16 -33 29 -65 30 -71 8 -35 275 -573 321 -645 15 -24 26 -45 25 -47 -1
-1 5 -10 14 -18 8 -9 15 -22 15 -30 0 -8 4 -14 9 -14 5 0 11 -8 15 -18 7 -22
57 -105 66 -112 4 -3 13 -16 20 -30 22 -43 163 -255 172 -258 4 -2 8 -8 8 -12
0 -9 108 -164 187 -268 50 -66 70 -91 106 -132 13 -14 36 -43 52 -65 16 -22
43 -56 60 -75 16 -20 44 -53 60 -74 34 -43 45 -57 118 -141 66 -76 507 -518
567 -567 25 -21 95 -80 157 -133 61 -52 114 -95 117 -95 6 0 40 -27 92 -75 42
-38 51 -45 94 -75 19 -13 40 -29 45 -36 6 -6 48 -37 95 -70 47 -32 103 -72
126 -89 47 -34 38 -28 202 -135 67 -44 127 -80 132 -80 6 0 10 -4 10 -8 0 -5
10 -14 23 -20 12 -6 45 -25 72 -42 28 -16 57 -33 65 -37 8 -3 40 -22 70 -41
30 -19 132 -74 225 -121 94 -47 173 -89 176 -94 3 -5 10 -8 15 -7 12 1 88 -32
95 -43 3 -5 9 -9 12 -9 20 0 47 -12 47 -21 0 -6 3 -8 6 -5 5 6 43 -8 139 -52
115 -52 323 -135 480 -191 50 -17 97 -34 105 -37 8 -3 17 -6 20 -7 3 -1 14 -5
25 -9 11 -4 31 -12 45 -16 14 -4 34 -11 45 -16 11 -4 26 -8 33 -10 13 -2 99
-28 162 -47 19 -6 42 -12 50 -13 8 -2 38 -10 65 -18 28 -9 61 -18 75 -20 14
-3 25 -5 25 -6 0 -2 24 -7 75 -15 24 -4 49 -9 54 -13 6 -3 28 -9 51 -13 22 -5
65 -13 95 -19 30 -6 78 -15 105 -20 28 -5 77 -14 110 -21 33 -7 69 -14 80 -16
11 -1 49 -8 85 -14 36 -6 85 -13 110 -15 25 -2 61 -7 80 -10 41 -6 200 -23
209 -22 3 0 8 0 11 -2 3 -1 25 -3 50 -5 25 -2 70 -6 100 -9 68 -7 450 -19 585
-19 144 1 490 12 560 19 33 4 74 7 90 9 17 1 64 5 105 9 41 4 104 11 140 16
36 6 90 12 120 15 30 3 62 7 70 9 19 4 70 13 185 33 50 8 106 19 125 24 19 5
56 11 83 14 26 3 57 10 70 15 24 10 98 24 110 22 4 -1 7 3 7 9 0 5 3 8 8 5 4
-2 25 0 47 4 22 5 63 14 90 20 28 5 57 13 65 17 8 3 21 7 29 9 8 1 26 6 40 10
14 4 29 7 34 6 4 -1 7 2 7 6 0 4 14 9 32 10 17 2 36 7 42 11 6 5 29 12 51 15
22 4 44 11 49 16 6 6 22 10 37 10 15 0 30 4 33 9 3 5 16 11 28 14 24 6 253 86
303 107 17 7 40 16 53 21 12 5 32 13 45 19 12 5 56 23 97 39 41 16 100 40 130
53 30 14 60 26 65 27 10 3 25 10 93 44 19 9 40 17 48 17 8 0 14 5 14 10 0 6 6
10 13 10 22 0 436 213 550 284 60 36 112 66 116 66 4 0 16 7 26 15 36 27 175
115 181 114 4 0 10 3 13 8 8 11 69 53 76 53 4 0 13 6 20 13 29 25 44 37 49 37
3 0 49 31 103 70 54 38 107 76 117 82 11 7 28 21 38 30 10 10 22 18 27 18 5 0
11 3 13 8 2 4 19 20 38 35 105 85 293 239 306 252 6 5 26 21 44 35 18 14 48
40 67 57 18 18 33 31 33 28 0 -2 42 37 94 88 51 51 108 106 127 123 73 67 334
345 394 420 22 27 42 51 45 54 3 3 21 25 40 50 19 25 40 50 45 55 6 6 24 28
40 50 26 36 60 77 90 109 6 6 26 32 45 59 18 26 37 47 42 47 4 0 8 6 8 14 0 8
4 16 8 18 4 1 18 20 31 41 12 20 27 37 32 37 5 0 9 5 9 12 0 6 18 35 40 64 22
29 40 56 40 59 0 3 11 18 25 33 14 15 25 31 25 35 0 5 11 23 25 41 14 18 25
38 25 44 0 6 4 12 8 14 7 3 118 174 135 207 4 9 16 30 27 46 11 17 23 37 27
45 4 8 28 49 53 90 37 62 252 483 255 500 0 3 9 23 19 45 111 250 117 264 149
345 14 36 38 99 55 140 16 41 46 125 67 185 21 61 42 121 48 135 6 14 11 27
12 30 1 3 6 20 10 38 4 17 12 32 17 32 5 0 7 4 4 9 -3 4 -1 23 5 42 6 19 13
48 16 64 3 17 9 38 14 47 5 9 12 34 15 55 3 21 9 43 14 48 6 8 22 73 45 185 7
35 25 109 36 145 4 17 11 48 14 70 3 22 10 60 15 85 5 25 12 61 14 80 5 33 8
49 21 110 3 14 8 42 11 64 3 21 8 48 10 60 5 25 11 69 19 150 3 33 8 62 10 65
2 3 6 47 9 97 4 49 9 101 11 115 10 47 28 484 28 674 0 157 -17 578 -28 675
-3 30 -8 80 -10 110 -3 30 -7 71 -11 90 -8 46 -12 73 -19 140 -6 55 -8 74 -19
140 -4 19 -8 49 -10 67 -3 18 -7 36 -10 41 -3 5 -8 34 -11 63 -4 30 -10 65
-15 79 -5 14 -11 45 -14 70 -2 25 -7 53 -11 62 -7 17 -31 122 -40 173 -10 52
-36 159 -45 185 -5 14 -12 36 -14 50 -3 14 -9 39 -15 55 -12 36 -62 204 -66
219 -1 6 -7 22 -12 36 -12 29 -94 260 -97 275 -1 6 -10 27 -19 49 -9 21 -17
40 -17 42 0 6 -97 242 -119 289 -17 39 -30 67 -82 184 -43 96 -235 475 -264
521 -16 25 -27 45 -24 46 2 0 -4 8 -13 18 -10 10 -18 24 -18 32 0 8 -4 14 -9
14 -5 0 -11 8 -15 18 -7 21 -56 105 -65 112 -4 3 -20 28 -36 55 -16 28 -53 85
-82 129 -29 43 -53 82 -53 87 0 4 -6 12 -12 16 -7 4 -37 44 -67 88 -30 44 -60
83 -65 87 -7 5 -7 8 -1 8 6 0 6 3 0 8 -6 4 -22 23 -35 42 -14 19 -30 42 -37
50 -44 55 -87 108 -101 125 -9 11 -43 54 -76 95 -33 41 -62 77 -65 80 -3 3
-28 32 -56 65 -27 33 -54 65 -60 72 -5 6 -28 33 -50 60 -88 105 -561 569 -663
650 -12 10 -36 29 -54 43 -17 14 -47 39 -67 55 -20 17 -54 44 -76 60 -22 16
-46 35 -54 43 -8 7 -46 39 -85 70 -39 31 -75 60 -81 64 -8 7 -205 146 -265
188 -76 52 -262 170 -270 170 -6 0 -10 4 -10 8 0 5 -10 14 -22 20 -13 6 -45
25 -73 42 -27 16 -57 33 -65 37 -8 4 -51 29 -94 55 -43 26 -109 62 -145 80
-36 17 -69 36 -72 41 -3 5 -9 8 -13 7 -4 -1 -53 21 -109 48 -184 90 -296 140
-308 138 -3 -1 -12 4 -20 10 -8 7 -66 33 -129 58 -63 26 -124 51 -135 56 -47
22 -468 176 -505 185 -12 2 -144 38 -185 49 -5 2 -17 5 -25 8 -13 5 -55 16
-180 49 -19 5 -49 11 -67 13 -17 2 -37 7 -43 11 -7 4 -29 9 -49 12 -20 2 -49
9 -66 14 -16 6 -50 12 -75 15 -25 3 -56 9 -70 14 -14 5 -49 11 -79 15 -29 3
-57 8 -61 10 -4 3 -24 7 -44 10 -77 11 -102 15 -126 20 -14 3 -52 8 -85 11
-33 3 -82 9 -110 14 -27 5 -88 12 -135 16 -47 4 -98 8 -115 10 -70 9 -152 13
-355 20 -224 7 -410 10 -413 7z m-1997 -4180 c25 -3 50 -7 55 -9 6 -1 25 -5
44 -8 19 -4 42 -11 52 -16 10 -6 26 -10 36 -10 19 0 28 -5 128 -59 64 -36 128
-80 133 -93 2 -4 8 -8 13 -8 6 0 20 -11 33 -25 13 -14 26 -25 30 -25 10 0 25
-17 61 -64 17 -22 42 -53 56 -69 15 -16 35 -48 45 -71 11 -22 26 -49 34 -59 8
-10 15 -21 16 -25 0 -4 4 -16 9 -27 30 -74 35 -89 35 -106 0 -11 4 -19 9 -19
8 0 13 -24 28 -130 16 -110 4 -297 -24 -370 -4 -8 -7 -17 -8 -20 -12 -48 -52
-147 -70 -174 -13 -19 -21 -36 -19 -39 3 -2 -2 -10 -11 -17 -8 -7 -15 -18 -15
-25 0 -7 -18 -32 -40 -55 -22 -23 -40 -46 -40 -51 0 -4 -8 -13 -17 -18 -10 -6
-15 -11 -10 -11 4 0 -12 -17 -35 -37 -24 -21 -47 -44 -51 -50 -4 -7 -15 -13
-22 -13 -8 0 -15 -4 -15 -9 0 -12 -96 -71 -115 -71 -8 0 -15 -4 -15 -8 0 -10
-113 -61 -152 -68 -10 -2 -23 -5 -30 -6 -7 -2 -15 -6 -18 -10 -3 -4 -24 -10
-45 -13 -22 -3 -58 -9 -80 -13 -48 -8 -191 -8 -260 1 -27 3 -79 16 -115 27
-36 12 -70 23 -76 24 -24 4 -202 99 -225 119 -13 12 -40 34 -59 48 -46 35 -70
58 -100 98 -14 18 -30 38 -35 44 -52 58 -135 205 -155 272 -46 160 -54 216
-51 345 3 141 6 158 57 307 24 72 98 201 157 278 35 44 94 105 103 105 3 0 32
22 64 48 106 85 209 133 385 178 11 3 52 8 90 11 39 3 71 6 72 7 4 4 118 -4
163 -11z m4495 3 c210 -26 432 -150 596 -333 36 -40 145 -221 158 -263 59
-189 62 -201 63 -360 1 -77 -5 -136 -16 -178 -9 -35 -16 -72 -16 -83 0 -10 -4
-19 -10 -19 -5 0 -9 -3 -8 -7 4 -17 -14 -83 -22 -83 -6 0 -10 -8 -10 -19 0
-10 -7 -24 -15 -31 -8 -7 -15 -17 -15 -22 0 -5 -15 -32 -33 -61 -95 -147 -214
-258 -360 -337 -77 -41 -187 -84 -187 -73 0 3 -6 1 -13 -5 -26 -22 -171 -41
-272 -37 -55 3 -111 7 -125 9 -73 12 -95 18 -105 25 -5 5 -26 11 -45 15 -73
14 -305 143 -318 178 -2 4 -7 8 -12 8 -11 0 -59 48 -101 102 -19 23 -43 52
-54 64 -58 64 -158 305 -170 411 -3 27 -8 60 -11 74 -6 31 -6 116 0 149 3 14
8 45 10 70 9 89 108 345 139 358 4 2 7 8 7 14 0 11 74 109 112 148 26 27 50
47 118 100 25 19 47 37 50 40 3 3 28 16 55 30 28 14 52 27 55 31 10 10 78 39
95 39 9 0 29 7 45 15 17 9 30 13 30 11 0 -3 15 0 33 5 17 5 66 12 107 15 41 4
76 7 77 9 4 2 129 -4 168 -9z m-6242 -2742 c40 -15 74 -30 77 -34 3 -4 15 -10
27 -14 12 -4 32 -19 43 -33 11 -14 20 -22 20 -18 0 7 50 -44 75 -77 18 -22 52
-101 64 -143 10 -39 13 -54 25 -125 3 -19 8 -106 10 -192 3 -86 10 -185 16
-220 20 -119 30 -183 35 -236 3 -30 8 -58 11 -63 3 -5 8 -22 10 -37 11 -60 13
-68 22 -93 6 -14 12 -38 14 -55 1 -16 6 -31 9 -34 4 -3 10 -21 13 -40 5 -36
49 -179 66 -215 5 -11 25 -64 44 -117 20 -54 40 -106 46 -115 5 -10 37 -76 71
-148 34 -71 95 -185 135 -252 41 -67 74 -127 74 -133 0 -5 5 -10 10 -10 6 0
10 -6 10 -13 0 -7 10 -23 23 -37 12 -14 36 -43 52 -65 34 -46 135 -175 150
-191 6 -6 39 -44 75 -84 89 -101 192 -204 270 -270 35 -30 84 -74 108 -97 23
-24 47 -43 52 -43 6 0 10 -4 10 -10 0 -5 6 -10 14 -10 8 0 16 -4 18 -8 2 -5
41 -38 88 -73 47 -35 87 -66 90 -70 3 -3 33 -21 68 -40 34 -18 62 -37 62 -41
0 -5 4 -8 10 -8 5 0 39 -18 74 -40 36 -21 118 -66 183 -98 65 -32 134 -67 153
-77 40 -22 70 -33 195 -76 50 -16 97 -33 105 -36 8 -4 17 -7 20 -8 3 0 39 -11
80 -23 41 -13 93 -27 115 -33 22 -6 63 -17 90 -24 64 -18 148 -35 205 -41 25
-3 63 -9 85 -14 22 -5 65 -12 95 -15 30 -2 69 -7 85 -11 95 -18 542 -18 700 1
22 2 67 7 100 10 33 4 71 10 85 15 14 5 52 11 85 14 33 2 86 11 118 19 31 8
57 13 57 10 0 -2 9 1 20 7 11 6 39 15 62 19 24 5 70 17 103 26 33 9 71 19 84
21 13 3 32 9 41 14 35 19 219 78 224 73 3 -4 6 -1 6 5 0 7 6 12 13 12 6 0 32
10 57 21 25 11 47 20 49 19 2 -1 7 2 10 7 5 7 117 65 131 68 5 1 20 9 110 58
30 17 64 35 75 41 11 6 22 13 25 16 10 10 161 100 168 100 4 0 18 10 32 23 14
12 68 55 120 94 53 40 116 91 141 115 25 24 70 63 100 88 67 56 186 175 261
260 31 36 70 81 87 100 30 33 194 244 217 279 84 126 298 526 345 646 37 93
122 367 135 435 3 14 11 48 19 75 28 98 45 182 45 224 0 23 4 50 9 59 5 9 11
47 14 85 3 37 9 71 12 77 3 5 8 85 11 177 2 93 7 184 11 203 3 19 7 46 9 60 3
33 30 114 57 170 28 60 118 144 192 180 68 33 97 44 108 42 4 -1 7 2 7 7 0 16
199 11 239 -6 143 -62 190 -95 251 -178 79 -109 98 -175 94 -340 -7 -263 -16
-394 -34 -515 -6 -41 -13 -93 -16 -115 -3 -22 -9 -65 -14 -95 -6 -30 -12 -71
-15 -90 -3 -19 -12 -64 -21 -100 -9 -36 -17 -69 -19 -75 -1 -5 -5 -17 -8 -25
-3 -8 -10 -35 -17 -60 -6 -25 -18 -70 -26 -100 -8 -30 -16 -63 -19 -74 -8 -33
-38 -111 -47 -121 -4 -5 -8 -16 -8 -25 0 -9 -12 -45 -26 -81 -14 -35 -27 -71
-29 -79 -2 -8 -10 -31 -18 -50 -13 -32 -23 -60 -29 -78 -1 -4 -18 -38 -37 -77
-19 -38 -35 -72 -36 -75 -1 -6 -64 -138 -112 -235 -19 -38 -41 -75 -49 -81 -8
-6 -14 -19 -14 -28 0 -9 -4 -16 -10 -16 -5 0 -10 -7 -10 -15 0 -8 -4 -15 -9
-15 -5 0 -13 -10 -17 -22 -4 -13 -10 -25 -14 -28 -3 -3 -30 -44 -59 -92 -49
-83 -111 -172 -173 -248 -33 -41 -35 -43 -68 -92 -14 -21 -28 -38 -32 -38 -5
0 -8 -6 -8 -12 0 -12 -27 -43 -161 -185 -27 -28 -49 -53 -49 -55 0 -4 -39 -47
-127 -141 -18 -18 -95 -87 -98 -87 -3 0 -24 -19 -48 -43 -65 -62 -166 -151
-185 -161 -9 -6 -28 -20 -42 -33 -14 -13 -33 -26 -42 -29 -10 -3 -18 -9 -18
-14 0 -5 -8 -11 -17 -14 -10 -3 -29 -16 -43 -28 -14 -13 -43 -36 -65 -52 -22
-17 -42 -32 -45 -35 -12 -14 -70 -51 -79 -51 -5 0 -11 -3 -13 -7 -2 -5 -15
-15 -30 -23 -15 -8 -71 -42 -124 -75 -143 -89 -186 -115 -214 -125 -14 -6 -59
-28 -102 -50 -42 -21 -79 -36 -82 -33 -3 4 -6 1 -6 -5 0 -7 -5 -12 -11 -12 -9
0 -137 -57 -181 -81 -10 -5 -27 -9 -37 -9 -11 0 -22 -4 -26 -9 -3 -5 -20 -13
-37 -17 -18 -3 -39 -10 -48 -15 -43 -24 -316 -114 -373 -123 -20 -3 -45 -10
-55 -15 -15 -8 -80 -25 -136 -37 -10 -2 -33 -8 -50 -13 -17 -5 -53 -13 -81
-17 -27 -4 -52 -8 -55 -9 -8 -2 -90 -14 -135 -19 -22 -3 -47 -7 -55 -10 -13
-4 -45 -8 -165 -22 -200 -22 -759 -21 -925 2 -89 12 -167 23 -190 28 -14 2
-52 7 -85 11 -32 4 -68 9 -80 12 -11 2 -36 7 -55 9 -19 3 -48 10 -65 15 -16 6
-46 13 -65 15 -19 3 -39 9 -44 14 -6 6 -23 10 -39 10 -15 0 -38 5 -50 11 -11
7 -37 14 -56 16 -20 3 -48 11 -62 19 -15 7 -29 11 -31 8 -6 -5 -157 48 -201
71 -16 8 -37 15 -46 15 -10 0 -20 3 -24 6 -5 6 -128 52 -152 58 -5 1 -45 19
-88 39 -44 20 -83 37 -88 37 -5 0 -9 5 -9 10 0 6 -8 10 -18 10 -10 0 -22 4
-28 9 -5 4 -43 23 -84 42 -41 18 -132 68 -203 111 -70 43 -130 78 -133 78 -2
0 -10 5 -17 10 -7 6 -47 33 -90 60 -42 27 -99 67 -125 87 -27 21 -61 47 -76
58 -16 11 -34 26 -41 33 -8 6 -18 12 -23 12 -6 0 -12 3 -14 8 -1 4 -23 22 -47
40 -47 33 -147 121 -213 185 -21 20 -41 37 -44 37 -8 0 -161 156 -234 239 -36
40 -87 96 -114 125 -27 28 -67 76 -90 106 -23 30 -44 57 -48 58 -5 2 -8 8 -8
13 0 6 -5 15 -10 22 -41 48 -57 69 -92 120 -23 31 -45 57 -49 57 -5 0 -9 5 -9
12 0 6 -11 25 -23 42 -13 17 -32 48 -42 69 -9 20 -21 37 -26 37 -5 0 -9 5 -9
10 0 6 -18 39 -40 74 -22 35 -40 67 -40 71 0 4 -6 13 -14 19 -16 13 -42 63
-129 246 -93 195 -104 221 -133 302 -14 40 -31 87 -39 103 -7 17 -20 53 -29
80 -9 28 -21 59 -26 70 -13 30 -36 103 -55 176 -9 35 -19 71 -22 79 -3 8 -8
26 -10 40 -2 14 -8 36 -13 50 -5 14 -11 34 -13 45 -2 11 -9 38 -15 60 -6 22
-13 58 -16 80 -3 22 -8 49 -10 60 -2 11 -7 45 -11 75 -4 30 -9 66 -11 80 -22
114 -30 192 -39 365 -10 207 -12 337 -4 388 15 91 89 213 171 280 38 31 65 45
173 91 17 8 70 14 118 15 75 2 100 -2 160 -25z"/>
</g>
</svg>
